
<svg width="85px" height="111px" viewBox="0 0 85 111" version="1.1" xmlns="http://www.w3.org/2000/svg" xmlns:xlink="http://www.w3.org/1999/xlink">
    <!-- Generator: Sketch 50.2 (55047) - http://www.bohemiancoding.com/sketch -->
    <desc>Created with Sketch.</desc>
    <defs></defs>
    <g id="Page-1" stroke="none" stroke-width="1" fill="none" fill-rule="evenodd">
        <g id="Desktop" transform="translate(-367.000000, -1417.000000)">
            <g id="P2" transform="translate(0.000000, 915.000000)">
                <g id="AI" transform="translate(230.000000, 502.000000)">
                    <g id="Icon" transform="translate(137.000000, 0.000000)">
                        <path d="M22.4925864,19.0766552 C22.5054678,17.189431 20.6908068,15.279931 18.8568237,15.2504483 C16.8920949,15.2193276 14.8510441,17.2054828 15.0252644,19.1831207 C15.1093153,20.1442586 15.3988237,21.2482241 16.2634847,21.831 C16.9954678,22.3240172 17.8887898,22.7554483 18.7437898,22.8321034 C20.4814847,22.9873793 22.4806712,20.8652759 22.4925864,19.0766552 M34.448739,8.27974138 C34.7179593,8.83598276 34.9578746,9.31622414 35.1845864,9.80268966 C35.8537729,11.2401379 35.7152983,11.6843448 34.3836881,12.3994655 C33.9096542,12.654 33.755722,13.3606034 33.9985356,13.8844138 C34.1176881,14.141569 34.1769424,14.4642414 34.1518237,14.7469483 C34.0507051,15.8695862 35.2322475,17.0036897 36.3313492,16.9453793 C37.3972814,16.8883793 37.4066203,16.9696207 37.4539593,18.0975 C37.4707051,18.4883103 37.6439593,18.8702759 37.6780949,19.2623966 C37.7048237,19.5667241 37.6616712,19.8897241 37.5843831,20.1871724 C37.5116034,20.4662759 37.3531627,20.7224483 37.2324,20.9891034 C36.1741966,21.1840172 35.1504508,21.4496897 34.4474508,22.382 C34.4184678,22.4203276 34.3144508,22.423931 34.3096203,22.4537414 C34.202061,23.161 33.9808237,23.8803793 34.0384678,24.5751897 C34.0932136,25.2408448 34.2510102,26.016569 35.1797559,26.1381034 C35.3124339,26.1554655 35.4737729,26.4181897 35.5153153,26.5934483 C35.7236712,27.4625345 35.4251458,28.1779828 34.9449932,28.9153793 C34.5788407,29.4775172 34.2568068,29.9312241 33.5528407,29.8132931 C32.9841288,29.7182931 32.4334508,29.5145345 31.865061,29.4192069 C31.5929424,29.3736724 31.2135864,29.3625345 31.029061,29.5171552 C30.4323322,30.0163966 29.8781119,30.5759138 29.3577051,31.1590172 C29.0047559,31.5547414 28.6163831,31.9370345 29.1451627,32.5876207 C29.4623661,32.9777759 29.5003661,33.6100172 29.6349763,34.1407069 C29.6720102,34.2868103 29.6646034,34.5416724 29.5766881,34.6078448 C28.8785186,35.1329655 28.2119085,35.7602931 27.4271119,36.0927931 C26.3843661,36.5347069 25.7744339,35.6367931 25.1603153,34.9691724 C24.7075356,34.4771379 24.3001627,33.9359655 23.6293661,34.6822069 C23.5726881,34.745431 23.4248746,34.7215172 23.3205356,34.7434655 C22.5914508,34.8967759 21.8626881,35.0513966 21.3033153,35.1696552 C21.0292644,36.2307069 20.8173661,37.0516379 20.5793831,37.9724828 C19.5034678,37.9724828 18.4182136,37.9711724 17.3326373,37.9731379 C16.7587729,37.9741207 16.6357559,37.625569 16.6183661,37.1174828 C16.5597559,35.4422069 16.0847559,34.937069 14.4716881,34.7398621 C14.3010102,34.7188966 14.1422475,34.604569 13.9754339,34.5410172 C13.7864,34.4689483 13.5319932,34.291069 13.4138068,34.3572414 C12.8505695,34.6740172 11.9823661,34.7051379 11.8145864,35.4238621 C11.5524508,36.5461724 10.7293322,36.274931 10.1941119,36.0829655 C9.35972203,35.7832241 8.61711186,35.2063448 7.8593661,34.7103793 C7.7444,34.6350345 7.66389153,34.3166207 7.72475593,34.1868966 C7.94116271,33.7236897 8.39780678,33.3092931 8.43870508,32.8467414 C8.48604407,32.3170345 8.35272203,31.5603103 8.00138305,31.2507414 C7.3463661,30.6741897 6.97441695,29.6013448 5.87016271,29.6786552 C5.37777288,29.7133793 4.86090847,29.7766034 4.41328136,29.9679138 C3.86775593,30.2014828 3.45812881,30.2463621 3.10131525,29.6920862 C2.68717966,29.0480517 2.15872203,28.4597069 1.86341695,27.7662069 C1.7233322,27.436 1.91075593,26.8574828 2.12523051,26.501069 C2.40314576,26.0398276 2.8414339,25.6709655 3.23850169,25.292931 C3.76116271,24.7953276 3.67260339,24.304931 3.35153559,23.7339483 C3.20662034,23.4761379 3.18923051,23.1243103 3.17731525,22.8127759 C3.14478983,21.9757931 2.7644678,21.5410862 1.96292542,21.4821207 C0.630027119,21.3841724 0.00560338983,20.7077069 0.00560338983,19.3623103 C0.00560338983,18.9256379 -0.00921016949,18.4883103 0.00946779661,18.0522931 C0.0384508475,17.3656724 0.387535593,16.9699483 1.07862034,16.9322759 C2.41506102,16.8592241 3.04592542,16.258431 3.17956949,14.9444828 C3.2014678,14.7338448 3.25428136,14.5074828 3.35829831,14.3276379 C3.6983661,13.7402759 3.74119661,13.0837931 3.03078983,12.4099483 C2.5023322,11.909069 1.56102712,11.5425 1.80706102,10.5944655 C2.03602712,9.71063793 2.51295932,8.82910345 3.30290847,8.36622414 C3.74409492,8.10775862 4.63355254,8.0275 4.97072203,8.30594828 C6.25789153,9.37027586 6.57026441,8.01308621 7.22141695,7.51515517 C7.52638305,7.28191379 7.78980678,6.99167241 8.06868814,6.72403448 C8.50697627,6.30308621 8.73465424,5.93913793 8.26867119,5.29313793 C7.60560339,4.37360345 8.38492542,2.59022414 9.47758644,2.26918966 C9.93938305,2.13356897 10.3770271,1.89803448 10.8442983,1.80532759 C11.2468407,1.72539655 11.525078,1.86167241 11.7453492,2.356 C11.9794678,2.88144828 12.4631627,3.52744828 12.9465356,3.64112069 C13.5100949,3.77346552 14.1928068,3.25194828 14.821739,3.25686207 C15.6638576,3.26374138 16.0921627,2.80839655 16.3794169,2.16436207 C16.5562136,1.76667241 16.5017898,1.26808621 16.6425186,0.845827586 C16.7365525,0.562793103 16.9738915,0.132672414 17.1745186,0.116293103 C18.1766881,0.0347241379 19.1878746,0.057 20.1955186,0.0723965517 C20.3475186,0.0746896552 20.5922644,0.198517241 20.6318746,0.320706897 C20.8247729,0.915931034 21.0315186,1.52163793 21.1030102,2.13913793 C21.186739,2.86637931 21.6002305,3.13074138 22.2178915,3.21755172 C22.6893492,3.28405172 23.1872136,3.07996552 23.599739,3.60934483 C23.7166373,3.7597069 24.4363831,3.59296552 24.7510102,3.37741379 C25.2517729,3.03312069 25.6143831,2.4867069 26.0958237,2.10441379 C26.3312305,1.91768966 26.7859424,1.74013793 26.9975186,1.84824138 C27.8573492,2.28851724 28.6753153,2.82084483 29.4736373,3.37217241 C29.613722,3.46881034 29.6839254,3.857 29.6146881,4.04536207 C29.4224339,4.56851724 29.0978237,5.04187931 28.9110441,5.56634483 C28.8234508,5.81105172 28.824739,6.22643103 28.9725525,6.39644828 C29.6182305,7.13941379 30.2916034,7.87091379 31.0438746,8.49627586 C31.2989254,8.70822414 31.9619932,8.77931034 32.1864508,8.59586207 C32.9483831,7.9727931 33.717722,8.18048276 34.448739,8.27974138" id="Fill-3" fill="#000000"></path>
                        <path d="M84.7249766,34 C84.8222089,35.6304216 85.1275639,37.2269305 84.9405787,38.7627877 C84.7997707,39.9171262 84.8313143,41.1777682 84.1653218,42.2717811 C83.8794783,42.7416686 83.8053346,43.3599245 83.7100535,43.9237243 C83.502256,45.1543666 82.7113899,46.0693592 82.0883228,47.0766337 C82.0216585,47.1842415 81.8434535,47.2664147 81.8415023,47.3626096 C81.8216656,48.3943404 81.5231397,49.5627006 81.907191,50.4212806 C82.3276638,51.3610556 82.2447399,52.2245269 82.2834377,53.1281066 C82.2980714,53.4656039 82.0847457,53.8096228 81.9962935,54.1562505 C81.9175972,54.4647263 81.8525588,54.7787455 81.8080076,55.094069 C81.6626469,56.1244955 81.7325631,57.2413343 81.3485118,58.1706746 C80.5511419,60.1001156 79.813282,62.0859691 78.3983732,63.7062822 C77.6696187,64.5407319 77.3141843,64.6333399 76.3623483,64.0023667 C76.2397511,63.9211717 76.0543918,63.9188891 75.8966739,63.9094327 C74.7383413,63.8389985 73.7478075,63.3374808 72.7927197,62.7283553 C72.4541952,62.5121613 72.0925821,62.3295541 71.730969,62.1531425 C69.5570628,61.0920641 67.7398919,59.6152282 66.3392915,57.6218747 C65.535743,56.4786231 64.663579,55.3846101 63.847348,54.2501628 C63.6255673,53.941687 63.558903,53.5096253 63.311107,53.2337579 C62.4909736,52.3207218 61.0370418,52.2600701 60.3668218,53.0622376 C59.9151306,53.6028854 59.9008222,55.2241766 60.2588582,55.8114545 C60.8435528,56.7707946 61.3108532,57.804808 61.9270913,58.7416483 C62.5026805,59.6171847 63.1559905,60.4555475 63.8691358,61.2224978 C64.6827653,62.0977082 65.5643598,62.9191146 66.482701,63.6837823 C67.3389306,64.3969288 68.257597,65.043554 69.1957749,65.64681 C69.8604666,66.0739804 70.5953997,66.3954996 71.3130977,66.7349534 C71.7173109,66.9263649 72.158596,67.0375596 72.5667115,67.2217973 C73.1595358,67.4891864 73.723093,67.8257054 74.3269738,68.0608122 C74.639483,68.1821156 75.0121526,68.1478768 75.6023755,68.2095067 C75.3727902,68.9441747 75.214747,69.6289518 74.941586,70.263838 C74.7448451,70.7216604 74.3981908,71.1158963 74.111697,71.5336103 C73.8134962,71.969259 73.5400101,72.4280596 73.1969329,72.8252303 C72.7497944,73.3424001 72.5550046,73.9939166 71.9999024,74.4892387 C70.9921335,75.3885792 70.1554155,76.4809617 68.9144841,77.1073697 C68.4819793,77.3255201 68.0484988,77.541714 67.7070476,77.7129083 C67.0768262,76.2328116 66.6361915,74.9036918 65.9685731,73.7010928 C65.0066562,71.9679546 63.8785664,70.2569902 62.2558601,69.1316732 C61.4471085,68.5708081 61.4825544,68.0647253 61.4793024,67.367557 C61.4727986,66.1183279 61.4662948,64.8690989 61.4627177,63.6198698 C61.4607665,62.8803106 60.8542841,61.7739064 60.2832476,61.6574943 C59.5099419,61.4999956 58.724604,61.5521691 58.234215,62.2966196 C57.9991015,62.6533559 57.8091896,63.0886784 57.7584597,63.5076968 C57.6810641,64.1500829 57.7425253,64.8094254 57.7431757,65.4615941 C57.7441512,66.7737574 57.1376688,67.1004939 55.9738079,67.6205984 C55.0232728,68.0454863 53.7124253,67.6525547 53.068871,68.8770013 C52.7420534,69.498518 52.673438,70.9179631 53.162201,71.4814368 C53.8415263,72.2643653 54.7670218,72.3612123 55.6577217,71.9121942 C56.0560814,71.7113263 56.6053301,71.8342601 57.0755572,71.7498042 C58.9831314,71.4074157 60.0741494,72.6628403 61.1687444,73.8628307 C61.8828653,74.645107 62.3127686,75.6295556 62.8613669,76.5210701 C64.2219688,78.7335523 64.2031076,81.102881 64.0369347,83.4806879 C63.9692948,84.4465497 63.3189116,85.3791508 62.8961624,86.3097955 C62.5995876,86.9629424 62.2639899,87.6014155 61.9004256,88.2193453 C61.5323087,88.844449 60.9684264,89.0120563 60.2312169,88.999339 C57.4410726,88.9507525 54.6493024,88.9608611 51.8588329,88.9924913 C51.1775564,88.9999912 50.9993514,88.7772756 51.0000018,88.105868 C51.0143102,71.5854577 51.0068308,55.0653736 51.0035789,38.5452894 C51.0032537,38.1024669 51.0035789,37.6599705 51.0035789,37.0244321 C51.6998142,37.8790991 52.3157272,38.4813769 52.7495328,39.1948494 C54.041194,41.3186366 55.814464,43.0230794 57.5903356,44.6887181 C58.9307755,45.9454471 60.4900695,47.0042429 62.0692001,47.955757 C63.1764776,48.6232516 64.5191939,48.8841191 65.690209,49.4625927 C68.0904485,50.6492135 70.6428777,50.3283466 73.1624626,50.3576942 C73.9712142,50.3668245 74.6294021,49.6256348 74.6466372,48.7960763 C74.664848,47.9143443 74.8063063,46.9859822 73.7959359,46.4909862 C73.5465139,46.3687046 73.2863606,46.196206 73.0249065,46.1838148 C72.2408695,46.1466412 71.4490278,46.1225109 70.6692182,46.1932712 C69.2786988,46.3188137 68.0338652,45.8802303 66.7883812,45.3604519 C66.2524654,45.136758 65.6898838,44.9623029 65.1243756,44.8292605 C64.4609846,44.6737183 64.5692734,44.3499165 64.9032452,43.9863325 C65.3448555,43.5056842 65.8469514,43.079492 66.273928,42.5871047 C66.9652854,41.7891763 67.6033114,40.944944 68.2953193,40.1476678 C68.4367776,39.9846256 68.7161172,39.8607136 68.9333453,39.8581049 C70.6126349,39.8375616 72.2922497,39.8359312 73.9712142,39.8597353 C75.0928002,39.8757135 76.102195,39.5656073 77.084599,39.034742 C77.7037639,38.6998534 78.4793459,38.6199627 79.0435534,38.2237703 C80.897471,36.9213895 82.6870006,35.5267268 84.7249766,34 Z M29.4003667,76.7735024 C28.7124051,76.3372339 28.0195736,75.9058562 27.3355081,75.4624143 C25.3959695,74.2044741 24.0531621,72.4013611 22.8869715,70.4567381 C22.3993272,69.6432179 22.0009654,68.7713329 21.618512,67.9010782 C21.5340995,67.7093548 21.6116941,67.2613481 21.7480527,67.190267 C22.2366709,66.9362661 22.7778846,66.7781269 23.3080598,66.6124883 C23.8635587,66.4396764 24.5138593,66.4282643 24.9755305,66.1224198 C26.5719,65.0640284 28.3211859,64.2948524 29.8987248,63.1520113 C31.3051663,62.1330732 32.3421408,60.8108991 33.6307295,59.7241404 C34.3427161,59.1241896 34.6897812,58.0938394 35.2206057,57.2698853 C35.5650734,56.7348205 35.9455788,56.223232 36.3069291,55.6989272 C36.9669696,54.7416144 37.1676115,53.655834 36.9247633,52.556359 C36.8413249,52.1784552 36.3536806,51.793052 35.95889,51.6023068 C35.1089215,51.1911449 33.6135223,51.895761 33.2710025,52.7767757 C32.9827015,53.5175844 32.7534892,54.2531763 32.0697483,54.8071526 C31.5970386,55.1905993 31.3262694,55.8355464 30.9954375,56.3820233 C30.2941647,57.5405152 29.2662807,58.3778378 28.2494353,59.2220077 C27.5176442,59.8294579 26.7890997,60.4545153 25.9891294,60.9602347 C25.2962979,61.3984596 24.5080154,61.6857186 23.7570692,62.0287339 C23.3356562,62.2211095 22.9165159,62.4330486 22.4756231,62.5641248 C21.489296,62.8582311 20.4925797,63.1190793 19.49424,63.3681893 C19.0988001,63.4666594 18.9257546,63.2468949 18.7182947,62.8820335 C18.2511042,62.061666 17.5839212,61.3541154 17.1355611,60.5259225 C16.7190181,59.7567464 16.4680534,58.8949693 16.1683892,58.0651461 C15.858985,57.208586 15.5343217,56.353004 15.3038108,55.4736196 C15.183036,55.0135487 15.2898503,54.4986996 15.2245929,54.0177608 C15.0982989,53.0852286 14.8785019,52.1631304 14.7921414,51.2279897 C14.7599998,50.8791053 15.0015493,50.5073966 15.1031689,50.1418832 C15.1596603,49.9387476 15.2138791,49.7271346 15.2174503,49.5187821 C15.2346575,48.5683166 15.2771884,47.6145905 15.216801,46.6680377 C15.1943993,46.3149145 14.9229807,45.9754859 14.7561038,45.6344269 C14.1915143,44.4801738 13.6233535,43.3285291 13,42.0611331 C14.1457368,42.15243 15.2927722,41.7647444 16.4167566,42.3262201 C16.6459689,42.4403411 16.9306986,42.4784902 17.1914032,42.4850114 C17.9754651,42.5052271 18.8270569,42.6910814 19.5306023,42.4511011 C20.9620428,41.9633151 22.4944536,42.2831801 23.9109596,41.6701869 C24.9862444,41.204899 26.1907453,41.0480641 27.3166776,40.6867894 C27.9117854,40.4957181 28.4614404,40.1615064 28.9529806,39.9290255 C29.9932019,40.9257915 31.0519289,41.9404909 32.1116299,42.954212 C32.5239523,43.3487449 32.4778501,43.5254695 31.9223512,43.8016425 C30.9863469,44.2669304 29.9344378,44.3530103 29.0257052,44.7459128 C27.5130989,45.3993375 26.0030899,45.1156651 24.5028208,45.1117524 C23.4895466,45.1091439 22.9135939,45.6484475 22.4428321,46.3100236 C22.0269384,46.8949756 22.4675065,48.3867011 23.1064439,48.889812 C23.3885763,49.111859 23.7869382,49.2859751 24.1395225,49.2996696 C25.4894725,49.3521653 26.8533831,49.4379192 28.1913205,49.3026042 C29.2195292,49.198917 30.2672177,49.0150191 31.232117,48.505387 C31.9889072,48.1056372 32.8551089,47.9197829 33.6317035,47.551987 C34.5673831,47.1091972 35.5267632,46.6670596 36.3559532,46.0596094 C37.8750528,44.9461138 39.3295444,43.7396911 40.7616342,42.5133786 C41.3112892,42.0431998 41.718417,41.4077085 42.2028146,40.857971 C42.7232499,40.2664978 43.3014752,39.720999 43.7758083,39.0952895 C44.485847,38.1575404 45.1267323,37.1672955 45.9354686,36 C45.965013,36.4708309 45.99683,36.742113 45.9971546,37.0133951 C45.9997519,53.4494379 46.0007259,69.8854806 45.9994273,86.3211973 C45.9994273,87.9475856 45.9932587,87.9453032 44.3916946,87.9479117 C41.9031504,87.9514983 39.4113596,87.8872645 36.9276853,87.9971467 C35.8751269,88.0437734 35.2712531,87.5132734 34.7800376,86.8210476 C34.3589493,86.2282701 34.1501908,85.4806141 33.867409,84.7932792 C33.5748874,84.0824679 33.2534707,83.3762215 33.0469849,82.6389994 C32.9116003,82.1567564 33.0012073,81.6154964 32.9154962,81.1133637 C32.6642068,79.6389195 32.974585,78.1615407 33.4602813,76.8690381 C34.0576617,75.2801467 34.9420446,73.7346213 36.2738134,72.5464579 C37.0150197,71.8848818 37.6867481,71.1450512 38.4243831,70.4789102 C38.5785982,70.3400085 39.0633205,70.2793613 39.0912416,70.3347916 C39.371426,70.90018 39.8766021,70.6690033 40.2973657,70.7482359 C40.9392251,70.8688782 41.5661499,71.1098367 42.2106066,71.1649409 C43.4138087,71.2676498 44.2744912,70.4029382 44.2767638,69.1926027 C44.2793611,67.8257583 43.6391251,67.325582 42.3391732,66.9467 C41.3979743,66.6724834 40.1941228,66.7471512 39.5782365,65.6838688 C39.4577864,65.4758424 39.2805203,65.2577081 39.269157,65.0369654 C39.2282495,64.2244234 39.2207822,63.4076425 39.2506512,62.5944484 C39.2694817,62.066883 39.1967571,61.6452871 38.7763181,61.2487979 C38.2464676,60.7492737 37.3059181,60.4013675 36.7007457,60.6296096 C36.2634242,60.7945961 35.5803326,61.9374371 35.5196206,62.4682631 C35.4667005,62.9332249 35.2910576,63.382862 35.2056712,63.8458675 C35.1582703,64.103455 35.0732085,64.4611431 35.1982039,64.6254774 C35.795909,65.4103043 35.4822843,66.2893626 35.5147506,67.1244028 C35.5231919,67.3500365 35.3365105,67.6744664 35.1413878,67.802608 C33.6242362,68.798722 32.6914786,70.3259879 31.6074278,71.7058747 C31.1772489,72.2536559 30.9068044,72.9413168 30.6298666,73.5937633 C30.2162455,74.5706397 29.8610639,75.5722966 29.4003667,76.7735024 Z M60.5466035,43 C59.267509,41.5592693 58.1314308,40.2992438 57.0230541,39.0146659 C56.7840492,38.7377157 56.6494077,38.3691033 56.4596856,38.0469768 C56.3665961,37.8888598 56.262877,37.736308 56.1546484,37.5886666 C55.3899619,36.5456837 54.6046603,35.5180869 53.8621993,34.4590631 C53.2147603,33.5352408 52.3908057,32.6520117 52.0571009,31.6136118 C51.7159876,30.5529512 50.9841561,29.6919828 51.0002615,28.4011851 C51.1004374,20.2746915 51.0476116,12.146561 51.0624286,4.01908534 C51.0630728,3.67928111 51.235401,3.33980424 51.3278463,3 C51.6834546,3.10442924 52.0335869,3.24650539 52.3966037,3.30477625 C52.9412899,3.39185517 53.503692,3.37581432 54.0432245,3.48318984 C55.0250125,3.67829901 56.0270933,3.79909647 56.9315751,4.31240384 C57.3338892,4.54057682 57.7999808,4.67446885 58.2528659,4.78380856 C59.5680366,5.10102465 60.5981409,5.92892919 61.6720521,6.68612302 C62.3736053,7.18077062 62.9856122,7.53497888 63.2487752,8.62248339 C63.6485124,10.2753462 64.1687183,11.8977641 63.960958,13.5850002 C63.8192301,14.735686 63.6994056,16.0582381 62.6593159,16.8183782 C62.1410426,17.1971388 61.5280694,17.9621894 60.6976726,17.2501719 C60.6222991,17.1856811 60.4969987,17.1555636 60.3939239,17.1539267 C59.0716668,17.1355943 58.0170822,16.3820015 56.8893789,15.835303 C56.2822036,15.5410024 54.7921277,15.7285822 54.3559922,16.186565 C54.2854504,16.2608767 54.1946157,16.33126 54.1588616,16.42194 C53.5913057,17.8662716 54.2384225,19.3292631 55.6563459,19.9394703 C56.4983386,20.3015353 57.2714,20.8655842 58.1375509,21.1228926 C59.2175821,21.4433823 60.4039093,21.8326186 61.4684792,21.6725374 C63.4082191,21.3808557 65.1968899,20.5264347 66.3265259,18.7390251 C66.6943743,18.1572986 66.9826618,17.5078076 67.211037,16.8543883 C67.5608473,15.8536354 67.9393252,14.8394605 68.0900722,13.7984417 C68.1931471,13.0851147 68.3149042,12.3436344 67.8861773,11.5396275 C67.5489292,10.9074868 67.7653864,9.96304056 67.7811698,9.15805153 C67.7824582,9.09126919 68.2031324,8.91940289 68.3065294,8.98782204 C68.8769843,9.36429109 69.4590351,9.74861689 69.9434869,10.2278784 C70.6691983,10.9464432 71.392977,11.6918519 71.9747058,12.5282679 C72.4417637,13.2000196 72.6772253,14.0341441 73.0544148,14.7759518 C73.1961428,15.0551936 73.4232295,15.3033358 73.6519269,15.5216879 C74.8785176,16.6946345 76.201419,17.7782106 77.3220359,19.0464203 C78.0078058,19.8222739 78.4223599,20.8583822 78.8994032,21.808721 C79.3551874,22.7161751 79.7971208,23.6416342 80.1211624,24.6024487 C80.297678,25.1272138 80.2780294,25.6798049 80.6581179,26.1836187 C81.0923207,26.7591253 81.2929946,27.5097718 81.6692178,28.1386388 C82.2206683,29.0604969 82.027725,29.8854552 81.4936685,30.7582087 C80.7908268,31.9069303 79.9137242,32.8677448 78.9258162,33.7041608 C78.1334282,34.3752578 77.1722552,34.8519004 76.2529564,35.3527679 C75.5987532,35.7089403 74.9133054,36.1148722 74.2008005,36.2235571 C73.2045176,36.3757816 72.1699038,36.2883753 71.1536501,36.2510558 C71.0512195,36.2474547 70.884045,35.8860445 70.8785691,35.6873343 C70.8505456,34.5972109 70.9194769,33.502177 70.845714,32.4166367 C70.7838691,31.5118015 70.5355231,30.621043 70.4475874,29.7162078 C70.4218187,29.4526795 70.5970459,29.0922513 70.7951429,28.8958327 C71.7720992,27.9268341 72.6453365,26.9260811 73.1822921,25.5956722 C73.7662755,24.1487216 73.7330983,23.5535732 72.5731841,22.7030805 C71.9528023,22.248044 70.3106911,22.6962058 69.8172202,23.3879268 C69.2883174,24.1300619 68.6895169,24.8217828 68.1093988,25.5252889 C68.0172756,25.6365928 67.8327072,25.7927456 67.743483,25.7629554 C67.1092506,25.554097 66.4031878,25.4228238 65.8823377,25.0388254 C64.8116477,24.2488951 63.4426848,23.9500115 62.363942,25.3910695 C61.796064,26.1495728 62.3723168,27.8345173 63.2461983,28.1661374 C63.6623631,28.3235997 63.981573,28.8820833 64.3793775,28.9246407 C65.4049723,29.0349625 65.8578574,29.8219465 66.468898,30.442302 C66.5246229,30.4986087 66.6302746,30.5405113 66.64026,30.6014011 C66.8106556,31.6325989 67.4226625,32.6087996 67.14887,33.6887747 C66.9185621,34.5981929 66.6209334,35.5036828 66.2353691,36.3558124 C65.6874618,37.5667332 65.0200521,38.7210201 64.0524369,39.6540086 C62.9859343,40.6819328 61.9100905,41.6997086 60.5466035,43 Z M45.9995916,3.00066948 L45.9995916,4.35186281 C45.9986264,12.6436497 46.007635,20.9351082 45.9738527,29.2268951 C45.9716005,29.7817615 45.7084202,30.3707938 45.4494224,30.8822958 C44.9185575,31.9315814 44.3497276,32.9667407 43.7194461,33.9565645 C42.9736612,35.1277302 42.218546,36.3074373 41.3385971,37.3718346 C39.773028,39.2647537 38.1102945,41.0742292 36.4166743,43 C35.3388575,42.0190461 34.3553095,41.1156224 33.3617876,40.2230398 C32.9676606,39.8692262 32.8006794,39.6997111 33.3563181,39.1941224 C34.8260098,37.8570553 36.2911971,36.4733387 37.5186213,34.911894 C38.5996555,33.5360619 39.4027094,31.9204118 40.2408326,30.3612668 C40.7469239,29.4194065 41.092147,28.3862183 41.4933522,27.3871959 C41.5618821,27.2170238 41.5258476,27.0054584 41.5773254,26.8247736 C41.8459753,25.885213 41.8582013,24.8287 42.1718942,23.9886803 C42.5200129,23.05569 42.3639708,22.2031865 42.4756133,21.3250587 C42.5608735,20.6525829 42.5473605,20.0116449 42.784802,19.3165014 C43.0759734,18.4649835 42.8568709,17.4298242 42.8417493,16.4744947 C42.8404624,16.3969646 42.7046896,16.3243621 42.6364815,16.2448609 C42.1963462,15.7317162 42.094034,15.1354566 42.0145651,14.4590386 C41.9222268,13.6705961 41.5374301,12.9176335 41.275215,12.1508732 C41.2340327,12.0299787 41.1539204,11.9218963 41.1223902,11.7996878 C40.7716976,10.4415956 40.3988052,9.10354293 39.4564394,8.00497972 C39.1845722,7.68828865 39.0825817,7.22442164 38.8724879,6.84564073 C38.6601419,6.46357463 38.3953529,6.11206069 38.1849373,5.72900904 C38.0900251,5.55653724 38.0070171,5.32788892 38.0417646,5.14983232 C38.0613906,5.04602073 38.3210318,4.97966015 38.4802913,4.91724178 C39.1411378,4.65804131 39.8052016,4.4073823 40.4670133,4.15048145 C40.514952,4.13175595 40.5487343,4.06670944 40.5960296,4.05619687 C41.4151703,3.87419806 42.2291633,3.64982047 43.0576344,3.53483927 C43.6528467,3.45270984 44.2535284,3.61072686 44.7969411,3.12057844 C45.0170088,2.92215375 45.5089437,3.03746346 45.9995916,3.00066948 Z" id="Combined-Shape" fill="#FF7D00"></path>
                        <path d="M60.6713426,95 L38.3286574,95 C37.0478792,95 36,94.1000143 36,93 C36,91.8999857 37.0478792,91 38.3286574,91 L60.6713426,91 C61.9521208,91 63,91.8999857 63,93 C63,94.1000143 61.9521208,95 60.6713426,95 Z M58.6273898,102 L40.3726102,102 C39.0679962,102 38,101.100014 38,100 C38,98.8999857 39.0679962,98 40.3726102,98 L58.6273898,98 C59.9320038,98 61,98.8999857 61,100 C61,101.100014 59.9320038,102 58.6273898,102 Z M53.7814531,111.00007 L46.6480653,111.00007 C45.2420245,111.00007 43.8856163,110.51882 43.1104327,108.76882 L42.2591673,106.73882 C41.6514939,105.50227 42.2513306,104.28567 43.657698,104.28567 L56.3349224,104.28567 C57.7416163,104.28567 58.3417796,105.26882 57.6426776,106.73882 L56.5481469,109.35227 C56.031249,110.63572 55.1878204,111.00007 53.7814531,111.00007 Z" id="Combined-Shape" fill="#000000"></path>
                    </g>
                </g>
            </g>
        </g>
    </g>
</svg>