
<svg width="72px" height="72px" viewBox="0 0 72 72" version="1.1" xmlns="http://www.w3.org/2000/svg" xmlns:xlink="http://www.w3.org/1999/xlink">
    <!-- Generator: Sketch 50.2 (55047) - http://www.bohemiancoding.com/sketch -->
    <desc>Created with Sketch.</desc>
    <defs></defs>
    <g id="Page-1" stroke="none" stroke-width="1" fill="none" fill-rule="evenodd">
        <g id="Desktop" transform="translate(-764.000000, -5131.000000)" fill="#171717">
            <g id="icon-/-sns-web-/-facebook-/-black" transform="translate(764.000000, 5131.000000)">
                <path d="M36,72 C16.117749,72 0,55.882251 0,36 C0,16.117749 16.117749,0 36,0 C55.882251,0 72,16.117749 72,36 C72,55.882251 55.882251,72 36,72 Z M52.0132385,54.0009806 C53.1105663,54.0009806 54,53.1105663 54,52.0132385 L54,19.9877421 C54,18.8894337 53.1105663,18 52.0132385,18 L19.9867615,18 C18.8894337,18 18,18.8894337 18,19.9877421 L18,52.0132385 C18,53.1105663 18.8894337,54.0009806 19.9867615,54.0009806 L37.2292228,54.0009806 L37.2292228,40.0593283 L32.5378769,40.0593283 L32.5378769,34.6266242 L37.2292228,34.6266242 L37.2292228,30.6197597 C37.2292228,25.9696004 40.0691346,23.4376073 44.2172101,23.4376073 C46.2039716,23.4376073 47.9112528,23.5856828 48.4094141,23.6513851 L48.4094141,28.5113999 L45.5322383,28.5123805 C43.2767835,28.5123805 42.8394214,29.5842118 42.8394214,31.1571464 L42.8394214,34.6266242 L48.220152,34.6266242 L47.5189998,40.0593283 L42.8394214,40.0593283 L42.8394214,54.0009806 L52.0132385,54.0009806 Z" id="Combined-Shape"></path>
            </g>
        </g>
    </g>
</svg>