
<svg width="72px" height="72px" viewBox="0 0 72 72" version="1.1" xmlns="http://www.w3.org/2000/svg" xmlns:xlink="http://www.w3.org/1999/xlink">
    <!-- Generator: Sketch 50.2 (55047) - http://www.bohemiancoding.com/sketch -->
    <desc>Created with Sketch.</desc>
    <defs></defs>
    <g id="Page-1" stroke="none" stroke-width="1" fill="none" fill-rule="evenodd">
        <g id="Desktop" transform="translate(-644.000000, -5131.000000)" fill="#171717">
            <g id="icon-/-sns-web-/-linkedin-/-black" transform="translate(644.000000, 5131.000000)">
                <path class="linkedin" d="M36,72 C16.117749,72 0,55.882251 0,36 C0,16.117749 16.117749,0 36,0 C55.882251,0 72,16.117749 72,36 C72,55.882251 55.882251,72 36,72 Z M25.0479263,20.3635675 C22.6009217,20.3635675 21,21.9349961 21,24.0087288 C21,26.0437519 22.5557604,27.6492819 24.9539171,27.6492819 L25.0018433,27.6492819 C27.4930876,27.6492819 29.0442396,26.0382219 29.0442396,24.0031989 C28.9963134,21.9313094 27.4930876,20.3635675 25.0479263,20.3635675 Z M21.8571429,30.2750884 L21.8571429,51.2723237 L28.483871,51.2723237 L28.483871,30.2750884 L21.8571429,30.2750884 Z M46.5898618,30.073245 C42.7935484,30.073245 40.4147465,32.1294663 39.9751152,33.570941 L39.9751152,30.2750884 L32.5308756,30.2750884 C32.6267281,32.0253188 32.5308756,51.2723237 32.5308756,51.2723237 L39.9751152,51.2723237 L39.9751152,39.9101116 C39.9751152,39.2787752 39.9456221,38.6474387 40.1373272,38.1939825 C40.6488479,36.9313097 41.7483871,35.6216322 43.7253456,35.6216322 C46.3105991,35.6216322 47.4857143,37.5626461 47.4857143,40.4068858 L47.4857143,51.2723237 L55,51.2723237 L55,39.5976692 C55,33.0935216 51.2995392,30.073245 46.5898618,30.073245 Z" id="Combined-Shape"></path>
            </g>
        </g>
    </g>
</svg>