<svg width="79px" height="111px" viewBox="0 0 79 111" version="1.1" xmlns="http://www.w3.org/2000/svg" xmlns:xlink="http://www.w3.org/1999/xlink">
    <!-- Generator: Sketch 50.2 (55047) - http://www.bohemiancoding.com/sketch -->
    <desc>Created with Sketch.</desc>
    <defs></defs>
    <g id="Page-1" stroke="none" stroke-width="1" fill="none" fill-rule="evenodd">
        <g id="Desktop" transform="translate(-760.000000, -1427.000000)">
            <g id="P2" transform="translate(0.000000, 915.000000)">
                <g id="Personalized" transform="translate(620.000000, 514.000000)">
                    <g id="Icon" transform="translate(143.000000, 0.000000)">
                        <path d="M2,15 L71,15 C72.1045695,15 73,15.8954305 73,17 L73,104 C73,105.104569 72.1045695,106 71,106 L2,106 C0.8954305,106 1.3527075e-16,105.104569 0,104 L0,17 C-1.3527075e-16,15.8954305 0.8954305,15 2,15 Z" id="Rectangle-5-Copy" stroke="#000000" stroke-width="6"></path>
                        <path d="M21,5 L31,5 C31.6666667,1.66666667 34,2.57175828e-16 38,0 C42,0 44.3333333,1.66666667 45,5 L55,5 C56.6568542,5 58,6.34314575 58,8 L58,18 C58,19.6568542 56.6568542,21 55,21 L21,21 C19.3431458,21 18,19.6568542 18,18 L18,8 C18,6.34314575 19.3431458,5 21,5 Z" id="Rectangle-5" stroke="#000000" stroke-width="4" fill="#FFFFFF"></path>
                        <path d="M22,71 C24,61 28.3333333,55 35,53" id="Path-2" stroke="#000000" stroke-width="2" stroke-linecap="round"></path>
                        <circle id="Oval-4" stroke="#FF7D00" stroke-width="5" cx="53" cy="46" r="11"></circle>
                        <path d="M13.5,76.5 L30.0680415,93.0680415" id="Line-4" stroke="#FF7D00" stroke-width="5" stroke-linecap="round"></path>
                        <path d="M13.5,93.5 L30.0680415,76.9319585" id="Line-4-Copy" stroke="#FF7D00" stroke-width="5" stroke-linecap="round"></path>
                    </g>
                </g>
            </g>
        </g>
    </g>
</svg>