<svg width="116px" height="113px" viewBox="0 0 116 113" version="1.1" xmlns="http://www.w3.org/2000/svg" xmlns:xlink="http://www.w3.org/1999/xlink">
    <!-- Generator: Sketch 50.2 (55047) - http://www.bohemiancoding.com/sketch -->
    <desc>Created with Sketch.</desc>
    <defs>
        <polygon id="path-1" points="0 0.0045 13.921356 0.0045 13.921356 24.9648226 0 24.9648226"></polygon>
    </defs>
    <g id="Page-1" stroke="none" stroke-width="1" fill="none" fill-rule="evenodd">
        <g id="Desktop" transform="translate(-1143.000000, -1416.000000)">
            <g id="P2" transform="translate(0.000000, 915.000000)">
                <g id="Diabetes" transform="translate(1010.000000, 501.000000)">
                    <g id="Icon" transform="translate(133.000000, 0.000000)">
                        <path d="M7.02906628,70 C6.90738272,70.1443633 6.82743362,70.2065772 6.79143137,70.2868004 C5.9695143,72.1184518 5.1339204,73.9448063 4.33955811,75.7874365 C3.51472466,77.7006594 2.70457368,79.6205273 1.93786675,81.5554191 C1.41895177,82.8649935 0.948609651,84.1949848 0.524627958,85.5354735 C0.0370892365,87.0774352 -0.234033782,88.6251753 0.267885723,90.2495753 C1.04726384,92.7715508 3.66848842,94.8330855 6.4103909,94.9852496 C8.7583806,95.1154559 10.7474541,94.3864165 12.2880081,92.6874753 C13.7018503,91.1285637 14.3039324,89.2824664 13.8523959,87.2463566 C13.528778,85.7877963 13.0756325,84.3449339 12.5475661,82.9408829 C11.6784841,80.6299147 10.7320677,78.344275 9.76171679,76.0699995 C8.90470256,74.0615296 7.97055504,72.0832036 7.02906628,70" id="Fill-1" fill="#FFFFFF"></path>
                        <path d="M54.3062096,66.2691666 C50.4337368,70.1245948 46.6446778,73.8970122 42.7955104,77.7293062 C44.1328482,78.7660649 45.4346454,79.8356779 46.7989785,80.8185866 C48.7224455,82.2043984 50.7490386,83.4320622 52.9538204,84.3243784 C54.6213171,84.9992533 56.3326084,85.5528199 58.1669325,85.4487163 C60.4789189,85.3174933 61.8554873,83.962689 61.9721111,81.6005783 C62.0661093,79.6965816 61.5016347,77.9391658 60.7830535,76.2181036 C59.955617,74.2360535 58.8877471,72.3819215 57.6403291,70.6417105 C56.555757,69.128661 55.3851495,67.6776265 54.3062096,66.2691666 M50.6530983,62.6885291 C50.473453,62.497624 50.330902,62.3232432 50.1657255,62.1740379 C47.4385158,59.7104481 44.5224357,57.5052217 41.2142434,55.8802925 C39.1695887,54.8760965 37.0690011,54.0354919 34.7146768,54.028785 C32.9473555,54.0237304 31.2996683,54.8802762 30.7904468,56.679489 C30.4865064,57.7533789 30.5348649,58.8231864 30.7457782,59.8942574 C31.2900549,62.6589797 32.5287334,65.1294708 34.0557184,67.459116 C34.9536536,68.8289866 35.9151928,70.1606568 36.9084856,71.4632635 C37.6174534,72.3930998 38.4270224,73.2461463 39.204838,74.1485715 C43.0519662,70.2975175 46.8457834,66.4998275 50.6530983,62.6885291 M29.9960262,77.0417951 C29.1589762,76.2079946 28.2028748,75.2763115 27.2699817,74.3215914 C25.9721659,72.9934206 24.6211362,71.708213 23.4217854,70.294893 C21.9619003,68.5748029 21.2063219,66.499147 20.8927681,64.2723418 C20.6159201,62.3061357 20.7648801,60.3585923 21.372858,58.4718004 C21.8280889,57.0591608 22.5147223,55.7581093 23.4634436,54.5906137 C24.793887,52.9533398 26.0618914,51.2654236 27.3675728,49.6078344 C28.7414223,47.8637353 30.1333334,46.1340221 31.5077656,44.390409 C33.0423248,42.4436433 34.5586281,40.4823945 36.0961976,38.5381561 C38.4562512,35.5539513 40.8340751,32.5840352 43.1918953,29.5980807 C44.7282024,27.6526759 46.2348923,25.6838453 47.7682862,23.7361076 C49.1944756,21.9245501 50.6437762,20.1312667 52.0730729,18.3220421 C54.0712141,15.792938 56.0559547,13.2532389 58.0544843,10.724232 C60.0141716,8.24431222 61.9262773,5.72347032 63.9681159,3.31285571 C65.5079189,1.49498014 67.5457762,0.428769183 69.9293293,0.102169785 C73.0246662,-0.322117826 75.7255604,0.581862651 77.9902563,2.68735955 C79.5858949,4.17095675 81.0741348,5.77022458 82.6144232,7.31369834 C84.8292069,9.53301902 87.0487487,11.747674 89.2646006,13.9659254 C91.4579239,16.161626 93.6433817,18.3652971 95.8466098,20.5509858 C96.2799919,20.9810083 96.7894077,21.3332691 97.2407544,21.7465729 C97.3697106,21.8645764 97.3831111,22.1054434 97.5081831,22.2319035 C99.0855658,23.8270888 100.672368,25.4129427 102.259364,26.9986023 C103.962984,28.70071 105.67078,30.3987353 107.374108,32.1012318 C109.305926,34.0321536 111.223955,35.9769752 113.167523,37.8960383 C115.90891,40.602828 116.764313,44.9188002 115.275297,48.4634729 C114.521175,50.2587004 113.321241,51.6695903 111.800665,52.8520551 C109.511984,54.6319246 107.241462,56.4354143 104.967735,58.2347242 C101.883468,60.6754715 98.8049308,63.1237034 95.7211494,65.5651311 C91.9045124,68.5868559 88.087584,71.6080948 84.2658975,74.6234043 C81.3449622,76.9279713 78.4124713,79.2178608 75.4927012,81.5238858 C73.4297907,83.1530919 71.3858157,84.8064041 69.3218369,86.4342494 C66.4630492,88.6889517 63.6337815,90.9841873 60.7155651,93.1593782 C58.3607552,94.9147527 55.6181057,95.4798863 52.711542,95.298021 C49.9711259,95.1264591 47.5117333,94.1871942 45.4148358,92.4263764 C44.318514,91.5057743 43.3594024,90.4214837 42.3385316,89.4109697 C41.1337429,88.2183958 39.9292455,87.025822 38.7397994,85.8482173 C29.7127692,94.8884109 20.6753487,103.938908 11.6272466,113 C8.72544108,110.073339 5.88655996,107.210151 3,104.298848 C8.47655952,98.839486 29.2756,77.8271888 29.9960262,77.0417951" id="Fill-3" fill="#000000"></path>
                        <g id="Group-7" transform="translate(0.000000, 70.000000)">
                            <mask id="mask-2" fill="white">
                                <use xlink:href="#path-1"></use>
                            </mask>
                            <g id="Clip-6"></g>
                            <path d="M6.75258,22.9554615 C9.84508,24.1489231 13.37908,21.9447885 13.32998,18.6901731 C12.29928,21.6617115 10.13698,23.0654615 6.75258,22.9554615 M6.98958,0.0045 C7.92578,2.08430769 8.85468,4.0595 9.70688,6.06488462 C10.67178,8.33546154 11.61298,10.6175769 12.47718,12.9248846 C13.00228,14.3267115 13.45278,15.7671923 13.77458,17.2235385 C14.22358,19.2563269 13.62488,21.0995 12.21908,22.6560385 C10.68708,24.3521923 8.70918,25.0801731 6.37438,24.9500769 C3.64788,24.79825 1.04138,22.7399808 0.26638,20.2219038 C-0.23272,18.6000769 0.0368799996,17.0548846 0.52168,15.5153654 C0.94328,14.1769038 1.41098,12.8491154 1.92698,11.5416154 C2.68938,9.60969231 3.49498,7.69296154 4.31518,5.78267308 C5.10508,3.94305769 5.93598,2.11959615 6.75328,0.29075 C6.78908,0.210653846 6.86858,0.148634615 6.98958,0.0045" id="Fill-5" fill="#000000" mask="url(#mask-2)"></path>
                        </g>
                        <path d="M57.9571013,20.7916955 C61.0152403,17.7360423 64.066845,14.6735609 67.1376625,11.6304913 C68.6874564,10.0946171 70.5639641,9.2629332 72.7468026,9.04384312 C74.4677555,8.8711853 76.0747975,9.21737885 77.608597,9.92547099 C78.7174735,10.4373965 79.6409521,11.2341587 80.5026964,12.1009595 C82.8335801,14.4457892 85.1761671,16.7788157 87.5125123,19.1182803 C90.260517,21.8699777 93.0048157,24.6251867 95.7542832,27.3754208 C98.2060023,29.8279422 100.663378,32.2750009 103.116755,34.725864 C105.010232,36.6172962 106.031725,38.888283 105.999249,41.578916 C105.977793,43.3490976 105.499718,45.0247563 104.486905,46.4758623 C103.877852,47.3485159 103.095884,48.1079177 102.34532,48.8728796 C100.326229,50.9306291 98.2867543,52.9686741 96.2468897,55.0060363 C92.7300835,58.5186962 89.2044999,62.0227719 85.6869135,65.5346514 C83.3235534,67.8941131 81.0257311,70.3231257 78.5903964,72.605623 C76.4615876,74.6009425 73.8636763,75.3226912 70.9513394,74.8696839 C69.2739808,74.6087463 67.7540301,73.9747897 66.5187592,72.838272 C64.8402303,71.2938137 63.2562046,69.646346 61.6397026,68.0349706 C58.8305488,65.2344999 56.0261738,62.4292494 53.222384,59.623316 C49.7618506,56.1601124 46.3128253,52.6853007 42.8411738,49.2332174 C41.0558534,47.4579634 40.0878052,45.3231519 40.0057854,42.8233204 C39.9332257,40.6122274 40.5399382,38.5584773 42.0096628,36.8849646 C43.3615753,35.3454812 54.56864,24.1773494 57.9571013,20.7916955" id="Fill-8" fill="#FF7D00"></path>
                        <path d="M32.3658116,56.4085532 C33.1997036,59.0283997 33.9973225,61.5343272 34.7849785,64.009142 C36.5322728,62.2875065 38.2579,60.5871281 40.0302468,58.8406605 C37.5014871,58.0382999 35.0067757,57.2465678 32.3658116,56.4085532 M50,62.6081995 C46.2073925,66.3968024 42.4284237,70.1718781 38.5961577,74 C37.8214633,73.1029485 37.0150421,72.2550783 36.3087344,71.330779 C35.3193039,70.0358324 34.3616001,68.7121886 33.4671564,67.3503786 C31.9460122,65.0346059 30.71215,62.578826 30.1699897,59.830567 C29.9599932,58.765874 29.9118227,57.7025336 30.2145813,56.6350384 C30.7218228,54.8465396 32.3631032,53.9949977 34.1235525,54.0000221 C36.4687225,54.0066891 38.5610455,54.8422882 40.5977499,55.840601 C43.8931755,57.4558541 46.7979169,59.6478522 49.5144255,62.0967719 C49.6789598,62.2450888 49.8210532,62.4184312 50,62.6081995" id="Fill-10" fill="#FFFFFF"></path>
                        <path d="M51.8341987,80.0669229 C54.3567581,80.8708185 56.8456616,81.6637441 59.4401486,82.490446 C58.6039431,79.8678254 57.8083171,77.3725156 57.0284614,74.9263788 C55.2969123,76.6400218 53.592961,78.3263358 51.8341987,80.0669229 M54.3985876,66 C55.4670189,67.3943558 56.6263212,68.8308597 57.7002336,70.3287577 C58.9355982,72.0515425 59.9930673,73.8871074 60.8124447,75.8493095 C61.5240271,77.5531372 62.0830039,79.2929544 61.989825,81.1778847 C61.8743371,83.5163415 60.5112723,84.857579 58.221708,84.9874879 C56.405346,85.090549 54.7107223,84.5425258 53.0594666,83.8743128 C50.8761588,82.9910284 48.8693043,81.7756582 46.9644753,80.4037238 C45.6135266,79.4306579 44.3243124,78.3717558 43,77.3453791 C46.8117736,73.5514612 50.563928,69.8167241 54.3985876,66" id="Fill-12" fill="#FFFFFF"></path>
                        <path d="M13.1015069,109 C11.4040786,107.284523 8.69811506,104.716164 7,103 C10.2179717,99.7540067 13.7305227,96.2979002 17,93 C18.7245055,94.7327468 21.1775848,97.4344868 23,99.2656506 C19.7205159,102.490744 16.4136603,105.742821 13.1015069,109 Z" id="Fill-14" fill="#FF7D00"></path>
                        <path d="M62.0719159,32.8612167 C59.9628485,35.0295258 57.8879088,37.1629414 55.76154,39.3490413 C57.0000205,40.5887912 58.2527605,41.842695 59.4767915,43.0678978 C61.5361409,40.9265205 63.6119362,38.7681389 65.6755634,36.6223385 C64.4767241,35.3710885 63.2566858,34.0978212 62.0719159,32.8612167 M73.7750246,34.3831613 C72.8242997,33.3791143 71.8666353,32.3676954 70.8382439,31.2816733 C71.9846084,30.1441465 73.1682376,28.9695638 74.3797203,27.7673612 C73.0457965,26.404747 71.8129247,25.1454372 70.5816689,23.8877982 C68.5934266,25.9407132 66.6139301,27.984487 64.5805329,30.0840904 C65.3032017,30.8190155 66.0209272,31.541949 66.7310477,32.2727458 C67.7447994,33.3160112 68.8055121,34.317306 69.7484419,35.4253454 C70.6610465,36.4978033 70.8008842,37.5201325 69.703382,38.7333437 C68.4769745,40.0888809 67.1796499,41.375909 65.9122702,42.6918348 C64.5672241,44.0884578 63.2244595,45.4874398 61.8736145,46.8780671 C61.3834697,47.382597 60.8781149,47.8731696 60.1454645,47.9784397 C59.3543504,48.0921629 58.715337,47.7443095 58.179467,47.2104887 C57.0087663,46.0443591 55.8677253,44.8462848 54.7164175,43.6593174 C53.7763397,42.6901638 52.8348359,41.7224846 51.9014125,40.7464506 C50.7826162,39.5766842 50.6557072,38.2928015 51.8007408,37.1038683 C56.2436044,32.4903631 60.701583,27.8922897 65.1521466,23.2865495 C66.2339634,22.1671083 67.3130233,21.0448167 68.3854288,19.915743 C69.6313243,18.6038471 70.9239907,18.7105916 72.3163782,20.1775913 C74.0392997,21.992641 75.8215405,23.7476346 77.5349557,25.572022 C78.0808074,26.1532193 78.7112651,26.6892025 78.9281988,27.5581971 C79.1511215,28.4508799 78.8312346,29.1749929 78.2961251,29.7573697 C76.8598184,31.3207933 75.3594394,32.8213104 73.8830162,34.3454174 C73.8637184,34.3653705 73.8258833,34.3662552 73.7750246,34.3831613" id="Fill-18" fill="#000000"></path>
                        <path d="M76.8797886,60.1455967 C81.9540606,55.0758804 87.0524157,49.9821644 92.1555678,44.8835505 C90.8143591,43.5461305 89.4792202,42.2146859 88.1446686,40.8826535 C88.0043801,41.0438923 87.8679097,41.2085597 87.7229221,41.3654883 C87.5656972,41.5356413 87.4000531,41.6980556 87.2394017,41.8650739 C87.1512931,41.9566646 87.0716038,42.0571695 86.9783066,42.1428827 C86.5416795,42.5445103 86.0877244,42.9283096 85.6669569,43.3458065 C85.3168721,43.6931654 85.0218062,44.0962624 84.6705466,44.442152 C84.2819877,44.8247757 83.8537799,45.1668449 83.4513194,45.5358526 C83.3853358,45.5964886 83.3748607,45.7139402 83.3175901,45.788878 C83.2410335,45.8891869 83.1481279,45.9784266 83.0547328,46.0641399 C82.6289725,46.4544044 82.1854925,46.8265467 81.7778434,47.2346395 C81.4290313,47.5838597 81.1400351,47.9933239 80.7883839,48.3392135 C80.4107896,48.7106701 79.9884557,49.0361844 79.5918691,49.3887351 C79.5223612,49.4505466 79.4933833,49.5561452 79.4282808,49.6251077 C79.3030687,49.7578407 79.164934,49.8781331 79.0331627,50.0047927 C78.8823991,50.1497705 78.7259574,50.2899483 78.5839067,50.4431546 C78.2588839,50.7934522 77.9572588,51.166966 77.6160827,51.5004148 C77.2143075,51.8931283 76.7610378,52.2339241 76.3669965,52.6336905 C76.0189676,52.986731 75.7227269,53.3907096 75.400641,53.769709 C75.3594258,53.8181002 75.2985329,53.8492508 75.2501711,53.8922544 C74.8310679,54.2643967 74.4056012,54.6298778 73.9983437,55.0146567 C73.8746001,55.1316185 73.8262383,55.3297874 73.7001451,55.442733 C73.4326865,55.6823381 73.1368374,55.8904988 72.8505824,56.1130593 C74.2184194,57.4821198 75.534664,58.7993605 76.8797886,60.1455967 M77.1802389,64.9930464 C76.5499687,65.0515273 75.9871506,64.7340455 75.5537542,64.3075366 C73.2704688,62.060283 71.0263428,59.7732585 68.7631266,57.5054338 C67.6507066,56.3908681 67.8234974,54.9887958 68.8353757,53.9756166 C70.7539893,52.0542692 72.6748547,50.1352727 74.5942515,48.2147089 C77.8355711,44.9713209 81.0749326,41.7260716 84.3186017,38.4852304 C84.9510256,37.8533036 85.5679816,37.2002179 86.2483758,36.6234414 C87.2342131,35.7881539 88.3938201,35.7837458 89.3488194,36.6613511 C90.5471943,37.7624966 91.6759633,38.9397553 92.8291091,40.0898798 C93.9129427,41.1711397 94.9953079,42.2541629 96.0675895,43.3470799 C97.3210812,44.6245497 97.3105081,45.90535 96.0371431,47.1789994 C92.2785282,50.938528 88.514431,54.6925709 84.7554245,58.4516097 C82.8705858,60.3364188 80.9932853,62.2286727 79.1099151,64.1149512 C78.5898786,64.6357937 78.0020963,65.0220419 77.1802389,64.9930464" id="Fill-20" fill="#000000"></path>
                        <path d="M65.0714054,47 C65.9974538,47.9224289 66.9842514,48.9053575 68,49.9171001 C66.8998668,50.9602412 65.8381765,51.9669102 64.7486744,53 C63.8949558,52.2907559 63.1369175,51.2177479 62.0075486,50.3638597 C61.9509758,50.1128626 62.2229241,49.878522 62.4711423,49.6220683 C63.1270457,48.9443186 63.7706094,48.2545072 64.4259433,47.5762788 C64.5963263,47.3999489 64.7915786,47.2481253 65.0714054,47" id="Fill-22" fill="#000000"></path>
                        <path d="M33,56 C35.756591,56.8820523 38.360526,57.7153899 41,58.5599146 C39.1500562,60.3981592 37.3488774,62.1878925 35.525083,64 C34.7029418,61.3951336 33.8704015,58.7575195 33,56" id="Fill-24" fill="#000000"></path>
                        <path d="M52,80.4368043 C53.8498805,78.5959036 55.6421103,76.8124038 57.4633678,75 C58.2836264,77.5871128 59.1204723,80.2262324 60,83 C57.2710975,82.1256536 54.6532485,81.2870301 52,80.4368043" id="Fill-26" fill="#000000"></path>
                    </g>
                </g>
            </g>
        </g>
    </g>
</svg>