
<svg width="72px" height="72px" viewBox="0 0 72 72" version="1.1" xmlns="http://www.w3.org/2000/svg" xmlns:xlink="http://www.w3.org/1999/xlink">
    <!-- Generator: Sketch 50.2 (55047) - http://www.bohemiancoding.com/sketch -->
    <desc>Created with Sketch.</desc>
    <defs></defs>
    <g id="Page-1" stroke="none" stroke-width="1" fill="none" fill-rule="evenodd">
        <g id="Desktop" transform="translate(-884.000000, -5131.000000)" fill="#171717">
            <g id="icon-/-sns-web-/-twitter-/-black" transform="translate(884.000000, 5131.000000)">
                <path d="M36,72 C16.117749,72 0,55.882251 0,36 C0,16.117749 16.117749,0 36,0 C55.882251,0 72,16.117749 72,36 C72,55.882251 55.882251,72 36,72 Z M49.6399009,24.3364554 C48.3259972,22.8984921 46.4481863,22 44.3692485,22 C40.3843045,22 37.1502968,25.3157742 37.1502968,29.405041 C37.1502968,29.9858654 37.2123266,30.5488328 37.3363862,31.0911235 C31.3345342,30.7819144 26.01407,27.8373791 22.4501767,23.3514975 C21.8279991,24.4492368 21.4727376,25.7227272 21.4727376,27.0789239 C21.4727376,29.6465813 22.7471678,31.9134881 24.6860686,33.2414895 C23.5037432,33.2057754 22.3881469,32.8693108 21.4125875,32.3185614 L21.4125875,32.4087866 C21.4125875,35.9980557 23.9022376,38.9924028 27.2086134,39.6700313 C26.603353,39.8439027 25.9642582,39.9313083 25.3054267,39.9313083 C24.8402032,39.9313083 24.386258,39.8861957 23.9464104,39.7997299 C24.8655791,42.7405059 27.5309803,44.8824133 30.69168,44.9397438 C28.2208267,46.9265768 25.1052396,48.1107818 21.7227364,48.1107818 C21.1400323,48.1107818 20.5639072,48.0769474 20,48.0092785 C23.195474,50.1070132 26.9933888,51.3335113 31.0704377,51.3335113 C44.3551508,51.3335113 51.6173354,40.0516085 51.6173354,30.2649995 C51.6173354,29.9426325 51.6116963,29.6212055 51.5994783,29.3054174 C53.0101861,28.2612493 54.2357444,26.9576839 55.2000256,25.4727283 C53.9067985,26.0610715 52.5139478,26.4595659 51.0534282,26.6381365 C52.5449627,25.7227272 53.6896943,24.2716061 54.2291654,22.5422907 C52.8325553,23.3900312 51.2893294,24.0065697 49.6399009,24.3364554 Z" id="Combined-Shape"></path>
            </g>
        </g>
    </g>
</svg>